<?xml version="1.0" encoding="UTF-8"?>
<!DOCTYPE svg PUBLIC "-//W3C//DTD SVG 1.1//EN" "http://www.w3.org/Graphics/SVG/1.1/DTD/svg11.dtd">
<!-- Creator: CorelDRAW 2020 (64 Bit) -->
<svg xmlns="http://www.w3.org/2000/svg" xml:space="preserve" width="16.9332mm" height="16.9332mm" version="1.1" style="shape-rendering:geometricPrecision; text-rendering:geometricPrecision; image-rendering:optimizeQuality; fillRule:evenodd; clipRule:evenodd"
viewBox="0 0 1693.32 1693.32"
 xlinkHref="http://www.w3.org/1999/xlink"
 xmlns:xodm="http://www.corel.com/coreldraw/odm/2003">
 <defs>
  <style type="text/css">
   <![CDATA[
    .fil0 {fill:#373435;fillRule:nonzero}
   ]]>
  </style>
 </defs>
 <g id="Camada_x0020_1">
  <metadata id="CorelCorpID_0Corel-Layer"/>
  <g id="_2401259166800">
   <path class="fil0" d="M510.8 588.98l0 12.35 -29.26 0 0 110.64 -36.79 0 0 -110.64 -29.62 0 0 -12.35 95.67 0zm95.8 122.99l0 -122.99 51.39 0c13.38,0 24.09,2.88 32.07,8.69 8.02,5.81 12.03,13.59 12.03,23.36 0,14.91 -8.58,24.65 -25.79,29.14 8.83,3.38 14.54,7.07 17.14,11.06 2.61,4.03 4.37,11.83 5.3,23.39 1.11,13.8 3.35,22.93 6.73,27.35l-37.66 0c-2.4,-5.68 -3.59,-12.81 -3.59,-21.33l-0.18 -7.28 -0.18 -9.16c0,-14.17 -5.57,-21.24 -16.67,-21.24l-5.95 0 0 59.01 -34.64 0zm34.64 -69.15l7 0c13.16,0 19.75,-7.07 19.75,-21.2 0,-14.14 -6.59,-21.21 -19.75,-21.21l-7 0 0 42.41zm214.2 -55.87c34.86,0 52.27,21.17 52.27,63.52 0,42.36 -17.74,63.53 -53.22,63.53 -35.48,0 -53.22,-21.67 -53.22,-64.97 0,-41.4 18.07,-62.08 54.17,-62.08zm-0.95 9.77c-6.55,0 -11.01,3.72 -13.32,11.13 -2.3,7.4 -3.47,21.6 -3.47,42.62 0,21.03 1.17,35.23 3.47,42.63 2.31,7.41 6.77,11.13 13.32,11.13 6.55,0 11.01,-3.72 13.31,-11.13 2.3,-7.4 3.47,-21.6 3.47,-42.63 0,-20.96 -1.17,-35.16 -3.47,-42.59 -2.3,-7.44 -6.76,-11.16 -13.31,-11.16zm233.2 -7.74l0 12.35 -43.44 0 0 41.12 36.98 0 0 12.36 -36.98 0 0 57.16 -34.64 0 0 -122.99 78.08 0zm175.76 0l0 12.35 -42.9 0 0 37.25 36.08 0 0 12.36 -36.08 0 0 48.68 50.26 0 0 12.35 -84.9 0 0 -122.99 77.54 0zm-42.27 -9.78l-7.54 0 12.44 -23.97 25.16 0 -30.06 23.97zm237.09 9.78l0 82.58c0,28.3 -15.23,42.44 -45.68,42.44 -30.34,0 -45.51,-14.14 -45.51,-42.44l0 -82.58 34.65 0 0 83.65c0,10.82 1.49,18.2 4.51,22.16 3.03,3.97 8.59,5.94 16.73,5.94 15.76,0 23.63,-9.72 23.63,-29.17l0 -82.58 11.67 0zm183.6 34.51l-16.13 3.07c0.69,-3.32 1.02,-6.08 1.02,-8.33 0,-14.35 -8.44,-21.51 -25.28,-21.51 -13.31,0 -19.95,4.92 -19.95,14.78 0,7.38 7.45,13.71 22.31,19 28.69,10.14 43.02,25.17 43.02,45.05 0,11.65 -4.03,21 -12.08,28.06 -8.08,7.04 -18.79,10.58 -32.16,10.58 -29.62,0 -44.43,-11.77 -44.43,-35.35 0,-1.9 0.18,-4.27 0.51,-7.1l16.72 -3.78c-1.31,5.23 -1.97,9.75 -1.97,13.59 0,15.24 8.5,22.86 25.52,22.86 13.61,0 20.43,-5.5 20.43,-16.47 0,-8.18 -8.14,-15.37 -24.44,-21.54 -23.54,-8.89 -35.33,-23.09 -35.33,-42.6 0,-11.07 3.92,-19.95 11.79,-26.71 7.86,-6.76 18.18,-10.14 30.99,-10.14 26.3,0 39.46,12.17 39.46,36.54z"/>
   <path class="fil0" d="M437.33 1125.59l-8.84 -29.24 5.19 0 4.67 16.87 1.65 6.29c0.06,-0.31 0.57,-2.32 1.51,-6.03l4.63 -17.13 5.08 0 4.41 16.98 1.43 5.57 1.68 -5.65 5.06 -16.9 4.81 0 -9.17 29.24 -5.13 0 -4.64 -17.5 -1.17 -5 -5.92 22.5 -5.25 0zm62.6 0l-8.84 -29.24 5.18 0 4.67 16.87 1.65 6.29c0.07,-0.31 0.58,-2.32 1.52,-6.03l4.62 -17.13 5.09 0 4.4 16.98 1.44 5.57 1.68 -5.65 5.05 -16.9 4.82 0 -9.18 29.24 -5.12 0 -4.64 -17.5 -1.18 -5 -5.91 22.5 -5.25 0zm62.59 0l-8.84 -29.24 5.19 0 4.66 16.87 1.66 6.29c0.06,-0.31 0.57,-2.32 1.51,-6.03l4.63 -17.13 5.08 0 4.41 16.98 1.43 5.57 1.68 -5.65 5.06 -16.9 4.81 0 -9.17 29.24 -5.13 0 -4.64 -17.5 -1.17 -5 -5.92 22.5 -5.25 0zm55.64 0l0 -5.63 5.63 0 0 5.63 -5.63 0zm314.83 -4.98l0.67 4.38c-1.39,0.29 -2.64,0.44 -3.73,0.44 -1.79,0 -3.18,-0.28 -4.18,-0.85 -0.98,-0.58 -1.68,-1.32 -2.08,-2.25 -0.4,-0.93 -0.6,-2.88 -0.6,-5.86l0 -16.85 -3.66 0 0 -3.83 3.66 0 0 -7.23 4.96 -2.98 0 10.21 4.96 0 0 3.83 -4.96 0 0 17.13c0,1.41 0.08,2.33 0.26,2.74 0.17,0.4 0.45,0.72 0.85,0.96 0.39,0.24 0.95,0.36 1.69,0.36 0.54,0 1.26,-0.07 2.16,-0.2zm26.73 4.43l0 -29.25 4.46 0 0 4.48c1.13,-2.07 2.18,-3.45 3.15,-4.1 0.97,-0.67 2.03,-1 3.19,-1 1.67,0 3.37,0.53 5.09,1.57l-1.76 4.57c-1.2,-0.67 -2.41,-1.01 -3.61,-1.01 -1.08,0 -2.05,0.33 -2.9,0.98 -0.85,0.64 -1.47,1.55 -1.83,2.7 -0.55,1.75 -0.83,3.69 -0.83,5.78l0 15.28 -4.96 0zm38.87 -14.63c0,-5.4 1.5,-9.4 4.51,-12 2.51,-2.16 5.58,-3.24 9.2,-3.24 4.01,0 7.3,1.32 9.85,3.95 2.54,2.61 3.82,6.25 3.82,10.88 0,3.76 -0.56,6.71 -1.69,8.86 -1.13,2.15 -2.77,3.82 -4.93,5.01 -2.15,1.19 -4.51,1.79 -7.05,1.79 -4.1,0 -7.41,-1.31 -9.93,-3.93 -2.52,-2.62 -3.78,-6.4 -3.78,-11.32zm5.07 0.01c0,3.74 0.82,6.54 2.45,8.39 1.64,1.86 3.7,2.79 6.19,2.79 2.46,0 4.5,-0.93 6.15,-2.8 1.63,-1.87 2.45,-4.71 2.45,-8.54 0,-3.6 -0.83,-6.34 -2.47,-8.19 -1.64,-1.86 -3.69,-2.78 -6.13,-2.78 -2.49,0 -4.55,0.91 -6.19,2.76 -1.64,1.86 -2.45,4.64 -2.45,8.37zm51.21 14.62l0 -25.42 -4.4 0 0 -3.83 4.4 0 0 -3.1c0,-1.96 0.17,-3.42 0.52,-4.36 0.47,-1.28 1.3,-2.32 2.5,-3.12 1.2,-0.8 2.88,-1.2 5.04,-1.2 1.4,0 2.94,0.17 4.63,0.5l-0.75 4.34c-1.03,-0.18 -2,-0.27 -2.92,-0.27 -1.5,0 -2.56,0.32 -3.19,0.96 -0.62,0.64 -0.93,1.84 -0.93,3.58l0 2.67 5.69 0 0 3.83 -5.63 0 0 25.42 -4.96 0zm56.32 -9.47l5.13 0.68c-0.8,2.97 -2.29,5.29 -4.47,6.94 -2.18,1.64 -4.96,2.47 -8.35,2.47 -4.27,0 -7.65,-1.32 -10.14,-3.95 -2.5,-2.62 -3.75,-6.31 -3.75,-11.05 0,-4.9 1.26,-8.72 3.78,-11.42 2.53,-2.72 5.81,-4.07 9.84,-4.07 3.89,0 7.08,1.33 9.55,3.98 2.47,2.66 3.71,6.4 3.71,11.22 0,0.29 -0.01,0.73 -0.03,1.31l-21.78 0c0.19,3.2 1.09,5.66 2.72,7.36 1.63,1.7 3.67,2.56 6.1,2.56 1.81,0 3.36,-0.48 4.64,-1.44 1.28,-0.96 2.3,-2.49 3.05,-4.59zm-16.23 -7.95l16.29 0c-0.22,-2.46 -0.85,-4.3 -1.87,-5.53 -1.57,-1.9 -3.62,-2.86 -6.13,-2.86 -2.27,0 -4.18,0.76 -5.72,2.28 -1.54,1.52 -2.4,3.56 -2.57,6.11zm68.62 17.42l0 -4.35c-2.27,3.31 -5.35,4.97 -9.25,4.97 -1.71,0 -3.32,-0.33 -4.81,-0.99 -1.5,-0.67 -2.6,-1.49 -3.33,-2.49 -0.72,-1 -1.23,-2.22 -1.52,-3.67 -0.2,-0.98 -0.3,-2.52 -0.3,-4.62l0 -18.1 4.96 0 0 16.18c0,2.58 0.1,4.33 0.3,5.22 0.31,1.31 0.97,2.32 1.98,3.07 1.01,0.74 2.25,1.11 3.73,1.11 1.48,0 2.87,-0.37 4.17,-1.13 1.29,-0.76 2.22,-1.81 2.76,-3.11 0.54,-1.31 0.81,-3.21 0.81,-5.7l0 -15.64 4.96 0 0 29.25 -4.46 0zm32.17 -8.74l4.9 -0.79c0.27,1.97 1.05,3.47 2.3,4.52 1.26,1.04 3.03,1.57 5.28,1.57 2.28,0 3.98,-0.47 5.08,-1.39 1.1,-0.92 1.66,-2.01 1.66,-3.26 0,-1.12 -0.5,-2 -1.49,-2.64 -0.69,-0.44 -2.38,-0.99 -5.07,-1.68 -3.62,-0.91 -6.13,-1.7 -7.54,-2.37 -1.4,-0.67 -2.46,-1.59 -3.18,-2.78 -0.73,-1.17 -1.09,-2.48 -1.09,-3.9 0,-1.31 0.3,-2.51 0.89,-3.62 0.6,-1.11 1.41,-2.03 2.43,-2.76 0.77,-0.56 1.82,-1.05 3.15,-1.44 1.32,-0.39 2.75,-0.59 4.27,-0.59 2.29,0 4.3,0.33 6.03,1 1.74,0.65 3.01,1.56 3.84,2.68 0.82,1.14 1.39,2.65 1.7,4.55l-4.85 0.67c-0.21,-1.52 -0.85,-2.71 -1.9,-3.57 -1.05,-0.85 -2.54,-1.27 -4.46,-1.27 -2.27,0 -3.89,0.38 -4.86,1.12 -0.96,0.75 -1.45,1.64 -1.45,2.64 0,0.64 0.19,1.23 0.6,1.74 0.4,0.53 1.03,0.97 1.89,1.32 0.5,0.18 1.95,0.61 4.37,1.26 3.49,0.93 5.94,1.71 7.33,2.3 1.38,0.58 2.48,1.47 3.26,2.59 0.8,1.13 1.2,2.54 1.2,4.23 0,1.65 -0.48,3.2 -1.45,4.65 -0.97,1.46 -2.36,2.58 -4.17,3.38 -1.82,0.8 -3.88,1.2 -6.17,1.2 -3.79,0 -6.7,-0.79 -8.69,-2.36 -1.99,-1.58 -3.26,-3.91 -3.81,-7zm-529.93 9.29l0 -4.35c-2.27,3.32 -5.35,4.97 -9.25,4.97 -1.72,0 -3.32,-0.33 -4.81,-0.99 -1.5,-0.66 -2.61,-1.49 -3.33,-2.48 -0.72,-1.01 -1.23,-2.23 -1.52,-3.68 -0.2,-0.97 -0.3,-2.51 -0.3,-4.62l0 -18.09 4.96 0 0 16.18c0,2.58 0.1,4.33 0.3,5.22 0.31,1.3 0.96,2.32 1.98,3.06 1,0.74 2.24,1.12 3.73,1.12 1.48,0 2.87,-0.38 4.17,-1.14 1.29,-0.76 2.21,-1.8 2.76,-3.11 0.53,-1.3 0.81,-3.21 0.81,-5.7l0 -15.63 4.95 0 0 29.24 -4.45 0zm34.14 0l0 -29.24 4.45 0 0 4.15c2.14,-3.19 5.24,-4.77 9.29,-4.77 1.77,0 3.38,0.32 4.86,0.95 1.47,0.62 2.58,1.46 3.31,2.48 0.73,1.02 1.25,2.25 1.54,3.66 0.18,0.92 0.27,2.53 0.27,4.82l0 17.95 -4.95 0 0 -17.77c0,-2.02 -0.19,-3.53 -0.58,-4.52 -0.38,-1 -1.07,-1.8 -2.04,-2.4 -0.98,-0.59 -2.14,-0.89 -3.45,-0.89 -2.11,0 -3.92,0.67 -5.45,2.01 -1.53,1.33 -2.29,3.88 -2.29,7.62l0 15.95 -4.96 0zm53.24 -34.71l0 -5.63 4.96 0 0 5.63 -4.96 0zm0 34.71l0 -29.24 4.96 0 0 29.24 -4.96 0zm53.52 -3.66c-1.84,1.57 -3.61,2.67 -5.31,3.31 -1.7,0.65 -3.52,0.97 -5.48,0.97 -3.21,0 -5.68,-0.78 -7.41,-2.35 -1.72,-1.56 -2.59,-3.56 -2.59,-5.99 0,-1.43 0.33,-2.73 0.98,-3.91 0.66,-1.19 1.51,-2.13 2.56,-2.84 1.06,-0.71 2.25,-1.26 3.57,-1.63 0.98,-0.25 2.45,-0.49 4.41,-0.74 4,-0.47 6.96,-1.04 8.85,-1.7 0.02,-0.67 0.03,-1.11 0.03,-1.28 0,-2.01 -0.47,-3.43 -1.41,-4.26 -1.27,-1.11 -3.15,-1.67 -5.65,-1.67 -2.34,0 -4.07,0.41 -5.18,1.23 -1.12,0.82 -1.93,2.26 -2.47,4.35l-4.84 -0.68c0.44,-2.07 1.16,-3.76 2.17,-5.03 1.02,-1.28 2.48,-2.26 4.4,-2.95 1.91,-0.69 4.13,-1.03 6.65,-1.03 2.5,0 4.54,0.29 6.1,0.88 1.56,0.59 2.72,1.32 3.45,2.22 0.73,0.89 1.25,2.01 1.55,3.38 0.16,0.84 0.24,2.37 0.24,4.55l0 6.57c0,4.59 0.11,7.5 0.31,8.73 0.2,1.23 0.61,2.4 1.22,3.53l-5.19 0c-0.5,-1.04 -0.82,-2.26 -0.96,-3.66zm-0.39 -10.99c-1.8,0.73 -4.51,1.35 -8.12,1.86 -2.04,0.29 -3.49,0.62 -4.33,0.99 -0.85,0.36 -1.5,0.9 -1.96,1.59 -0.46,0.71 -0.69,1.49 -0.69,2.35 0,1.31 0.5,2.41 1.5,3.28 1,0.87 2.47,1.31 4.4,1.31 1.9,0 3.6,-0.41 5.1,-1.25 1.48,-0.82 2.58,-1.96 3.27,-3.4 0.54,-1.11 0.8,-2.76 0.8,-4.93l0.03 -1.8zm34.48 14.65l0 -29.24 4.45 0 0 4.48c1.13,-2.08 2.19,-3.45 3.15,-4.11 0.97,-0.67 2.03,-0.99 3.19,-0.99 1.67,0 3.37,0.52 5.1,1.56l-1.77 4.58c-1.2,-0.68 -2.4,-1.02 -3.61,-1.02 -1.08,0 -2.04,0.33 -2.9,0.98 -0.85,0.65 -1.47,1.55 -1.83,2.71 -0.55,1.75 -0.83,3.68 -0.83,5.77l0 15.28 -4.95 0zm51.48 -4.42l0.68 4.37c-1.39,0.29 -2.64,0.45 -3.73,0.45 -1.8,0 -3.19,-0.29 -4.18,-0.86 -0.99,-0.57 -1.68,-1.31 -2.09,-2.24 -0.4,-0.93 -0.6,-2.89 -0.6,-5.86l0 -16.85 -3.66 0 0 -3.83 3.66 0 0 -7.23 4.96 -2.98 0 10.21 4.96 0 0 3.83 -4.96 0 0 17.13c0,1.41 0.08,2.33 0.26,2.73 0.17,0.4 0.45,0.72 0.85,0.97 0.39,0.23 0.96,0.36 1.69,0.36 0.54,0 1.27,-0.07 2.16,-0.2zm362.59 4.42l0 -5.63 5.64 0 0 5.63 -5.64 0zm55.25 -10.71l4.85 0.68c-0.54,3.34 -1.89,5.94 -4.08,7.82 -2.19,1.89 -4.88,2.83 -8.07,2.83 -3.99,0 -7.2,-1.3 -9.62,-3.92 -2.43,-2.61 -3.65,-6.34 -3.65,-11.21 0,-3.15 0.53,-5.91 1.57,-8.27 1.05,-2.36 2.63,-4.13 4.77,-5.31 2.14,-1.18 4.45,-1.77 6.97,-1.77 3.17,0 5.77,0.8 7.78,2.4 2.02,1.61 3.31,3.89 3.88,6.84l-4.79 0.73c-0.46,-1.96 -1.27,-3.44 -2.44,-4.43 -1.17,-0.99 -2.58,-1.49 -4.23,-1.49 -2.5,0 -4.53,0.9 -6.1,2.68 -1.55,1.79 -2.33,4.61 -2.33,8.48 0,3.93 0.75,6.77 2.25,8.55 1.51,1.77 3.47,2.66 5.89,2.66 1.95,0 3.58,-0.59 4.87,-1.78 1.31,-1.18 2.13,-3.01 2.48,-5.49zm29.12 -3.91c0,-5.4 1.5,-9.4 4.51,-12 2.51,-2.16 5.58,-3.24 9.2,-3.24 4.01,0 7.3,1.31 9.85,3.94 2.55,2.62 3.82,6.26 3.82,10.89 0,3.75 -0.56,6.7 -1.69,8.85 -1.12,2.15 -2.77,3.82 -4.93,5.02 -2.15,1.19 -4.51,1.78 -7.05,1.78 -4.1,0 -7.4,-1.3 -9.93,-3.92 -2.52,-2.62 -3.78,-6.4 -3.78,-11.32zm5.07 0.01c0,3.74 0.82,6.54 2.45,8.38 1.64,1.86 3.7,2.79 6.19,2.79 2.46,0 4.51,-0.93 6.15,-2.8 1.63,-1.86 2.45,-4.71 2.45,-8.53 0,-3.61 -0.83,-6.34 -2.47,-8.19 -1.64,-1.86 -3.69,-2.79 -6.13,-2.79 -2.49,0 -4.55,0.92 -6.19,2.77 -1.63,1.85 -2.45,4.64 -2.45,8.37zm50.03 14.61l0 -29.24 4.45 0 0 4.13c0.91,-1.43 2.13,-2.58 3.65,-3.45 1.52,-0.87 3.25,-1.3 5.19,-1.3 2.16,0 3.94,0.45 5.32,1.34 1.38,0.9 2.36,2.15 2.92,3.76 2.33,-3.4 5.34,-5.1 9.06,-5.1 2.92,0 5.16,0.8 6.72,2.4 1.57,1.61 2.36,4.08 2.36,7.41l0 20.05 -4.96 0 0 -18.41c0,-1.97 -0.17,-3.4 -0.49,-4.27 -0.32,-0.87 -0.9,-1.57 -1.76,-2.1 -0.84,-0.54 -1.84,-0.8 -2.97,-0.8 -2.07,0 -3.78,0.68 -5.14,2.05 -1.36,1.37 -2.04,3.56 -2.04,6.56l0 16.97 -4.96 0 0 -18.98c0,-2.2 -0.4,-3.85 -1.21,-4.95 -0.81,-1.1 -2.13,-1.65 -3.96,-1.65 -1.39,0 -2.68,0.37 -3.86,1.1 -1.19,0.73 -2.04,1.8 -2.58,3.22 -0.52,1.41 -0.79,3.45 -0.79,6.1l0 15.16 -4.95 0zm70.24 0l0 -5.63 5.64 0 0 5.63 -5.64 0zm40.72 0l-4.62 0 0 -40.34 4.95 0 0 14.39c2.1,-2.61 4.77,-3.91 8.02,-3.91 1.79,0 3.5,0.35 5.11,1.08 1.6,0.72 2.92,1.74 3.96,3.05 1.03,1.31 1.85,2.89 2.43,4.74 0.59,1.84 0.88,3.82 0.88,5.93 0,4.99 -1.24,8.86 -3.71,11.59 -2.47,2.73 -5.44,4.09 -8.91,4.09 -3.45,0 -6.15,-1.44 -8.11,-4.3l0 3.68zm-0.06 -14.84c0,3.5 0.48,6.02 1.43,7.58 1.56,2.55 3.66,3.82 6.32,3.82 2.17,0 4.04,-0.94 5.61,-2.81 1.57,-1.88 2.36,-4.68 2.36,-8.4 0,-3.81 -0.75,-6.62 -2.26,-8.43 -1.51,-1.82 -3.34,-2.73 -5.49,-2.73 -2.17,0 -4.03,0.94 -5.6,2.82 -1.58,1.88 -2.37,4.59 -2.37,8.15zm48.68 14.84l0 -29.24 4.45 0 0 4.48c1.13,-2.08 2.19,-3.45 3.15,-4.11 0.97,-0.67 2.03,-0.99 3.19,-0.99 1.67,0 3.37,0.52 5.1,1.56l-1.77 4.58c-1.2,-0.68 -2.4,-1.02 -3.6,-1.02 -1.09,0 -2.05,0.33 -2.91,0.98 -0.85,0.65 -1.46,1.55 -1.83,2.71 -0.55,1.75 -0.83,3.68 -0.83,5.77l0 15.28 -4.95 0z"/>
   <path class="fil0" d="M415.43 622.02l0 349.83c0,125.29 -67.93,182.83 -188.98,182.83 -120.94,0 -188.26,-57.89 -188.26,-182.83l0 -424.94 150.93 0 0 429.42c0,24.74 1.67,67.75 16.88,88.5 13.69,18.69 40.73,22.17 62,22.17 69.79,0 88.46,-52.28 88.46,-115.15l0 -349.83 58.97 0zm1154.39 163.51l0 283.62 -109.18 0 0 -283.62 -78 0 0 -43.95 264.22 0 0 43.95 -77.04 0zm-246.97 119.88c12.58,5.88 25.4,13.81 32.27,24.13 10.23,15.34 13.48,44.86 14.96,62.85 1.45,17.55 5.19,52.5 16.44,66.83l7.79 9.93 -115.84 0 -1.6 -3.7c-7.64,-17.67 -9.96,-38.02 -9.96,-56.96l-0.47 -18.7 -0.48 -23.61c0,-20.21 -4.34,-42.31 -26.94,-47.23l-4.84 -1.04 0 -38.15 5.48 -0.6c27.83,-3.03 37.18,-21.31 37.18,-47.77 0,-31.64 -13.53,-48.23 -45.86,-48.23l-12.3 0c0,93.29 0,186.57 0,279.85l0 6.14 -103.51 0 0 -327.57 141.49 0c30.56,0 62.56,5.45 88,23.42 22.36,15.8 34.26,37.41 34.26,64.89 0,39.66 -22.75,63.01 -56.07,75.52zm-356.58 38.83l-0.22 -0.07 -26.1 -97.73 -31.79 110.22 0.28 0 -12.46 43.95 -0.36 0 -20.09 68.54 -48.58 0 96.91 -327.57 89.53 0 91.1 327.57 -104.63 0 -9.25 -33.97 -24.34 -90.94zm-149.39 -202.66l0 327.57 -103.51 0 0 -327.57 103.51 0zm-345.39 142.56l0 185.01 -43 0 0 -327.57 67.33 0 134.04 201.47 0 -201.47 43 0 0 327.57 -79.4 0 -121.97 -185.01z"/>
  </g>
 </g>
</svg>
